<?xml version="1.0" encoding="UTF-8" standalone="no"?>
<!-- Created with Inkscape (http://www.inkscape.org/) -->

<svg
   xmlns:dc="http://purl.org/dc/elements/1.1/"
   xmlns:cc="http://creativecommons.org/ns#"
   xmlns:rdf="http://www.w3.org/1999/02/22-rdf-syntax-ns#"
   xmlns:svg="http://www.w3.org/2000/svg"
   xmlns="http://www.w3.org/2000/svg"
   xmlns:xlink="http://www.w3.org/1999/xlink"
   xmlns:sodipodi="http://sodipodi.sourceforge.net/DTD/sodipodi-0.dtd"
   xmlns:inkscape="http://www.inkscape.org/namespaces/inkscape"
   width="111.05"
   height="36.955334"
   id="svg2"
   version="1.1"
   inkscape:version="0.48.5 r10040"
   sodipodi:docname="fuel_bar_0.svg">
  <defs
     id="defs4">
    <linearGradient
       id="linearGradient3755">
      <stop
         style="stop-color:#ff000f;stop-opacity:1;"
         offset="0"
         id="stop3757" />
      <stop
         id="stop3765"
         offset="0.60000002"
         style="stop-color:#f8ff00;stop-opacity:1;" />
      <stop
         id="stop3763"
         offset="1"
         style="stop-color:#00ff00;stop-opacity:1;" />
    </linearGradient>
    <linearGradient
       inkscape:collect="always"
       xlink:href="#linearGradient3755"
       id="linearGradient3761"
       x1="57.142857"
       y1="205.21933"
       x2="702.85718"
       y2="205.21933"
       gradientUnits="userSpaceOnUse" />
    <linearGradient
       inkscape:collect="always"
       xlink:href="#linearGradient3755"
       id="linearGradient3773"
       gradientUnits="userSpaceOnUse"
       x1="57.142857"
       y1="205.21933"
       x2="702.85718"
       y2="205.21933" />
    <linearGradient
       inkscape:collect="always"
       xlink:href="#linearGradient3755"
       id="linearGradient3780"
       gradientUnits="userSpaceOnUse"
       x1="57.142857"
       y1="205.21933"
       x2="702.85718"
       y2="205.21933"
       gradientTransform="matrix(0.21682316,0,0,0.27752715,32.68778,-22.29551)" />
    <linearGradient
       inkscape:collect="always"
       xlink:href="#linearGradient3755"
       id="linearGradient3037"
       gradientUnits="userSpaceOnUse"
       gradientTransform="matrix(0.21682316,0,0,0.27752715,32.68778,-22.29551)"
       x1="57.142857"
       y1="205.21933"
       x2="702.85718"
       y2="205.21933" />
    <linearGradient
       inkscape:collect="always"
       xlink:href="#linearGradient3755"
       id="linearGradient3083"
       gradientUnits="userSpaceOnUse"
       gradientTransform="matrix(0.21682316,0,0,0.27752715,32.68778,-22.29551)"
       x1="57.142857"
       y1="205.21933"
       x2="702.85718"
       y2="205.21933" />
    <linearGradient
       inkscape:collect="always"
       xlink:href="#linearGradient3755"
       id="linearGradient3030"
       gradientUnits="userSpaceOnUse"
       gradientTransform="matrix(0.21682316,0,0,0.27752715,32.68778,-22.29551)"
       x1="57.142857"
       y1="205.21933"
       x2="702.85718"
       y2="205.21933" />
  </defs>
  <sodipodi:namedview
     id="base"
     pagecolor="#ffffff"
     bordercolor="#666666"
     borderopacity="1.0"
     inkscape:pageopacity="0.0"
     inkscape:pageshadow="2"
     inkscape:zoom="4"
     inkscape:cx="42.23548"
     inkscape:cy="15.616286"
     inkscape:document-units="px"
     inkscape:current-layer="layer1"
     showgrid="false"
     fit-margin-top="0"
     fit-margin-left="0"
     fit-margin-right="0"
     fit-margin-bottom="0"
     inkscape:window-width="1366"
     inkscape:window-height="721"
     inkscape:window-x="0"
     inkscape:window-y="25"
     inkscape:window-maximized="1"
     inkscape:showpageshadow="true"
     showborder="true" />
  <metadata
     id="metadata7">
    <rdf:RDF>
      <cc:Work
         rdf:about="">
        <dc:format>image/svg+xml</dc:format>
        <dc:type
           rdf:resource="http://purl.org/dc/dcmitype/StillImage" />
      </cc:Work>
    </rdf:RDF>
  </metadata>
  <g
     inkscape:label="Capa 1"
     inkscape:groupmode="layer"
     id="layer1"
     transform="translate(-74.474277,-983.08831)">
    <text
       xml:space="preserve"
       style="font-size:9.07945251px;font-style:normal;font-weight:normal;line-height:125%;letter-spacing:0px;word-spacing:0px;fill:#000000;fill-opacity:1;stroke:none;font-family:Sans"
       x="101.27553"
       y="1018.507"
       id="text3776"
       sodipodi:linespacing="125%"
       transform="scale(0.9986196,1.0013823)"><tspan
         sodipodi:role="line"
         id="tspan3778"
         x="101.27553"
         y="1018.507"
         style="font-weight:bold;fill:#000000;fill-opacity:1;-inkscape-font-specification:Sans Bold">FUEL</tspan></text>
    <path
       sodipodi:type="arc"
       style="color:#000000;fill:#ffb380;fill-opacity:1;fill-rule:nonzero;stroke:none;stroke-width:0.83987445;marker:none;visibility:visible;display:inline;overflow:visible;enable-background:accumulate"
       id="path3351"
       sodipodi:cx="332.85715"
       sodipodi:cy="262.36218"
       sodipodi:rx="98.571426"
       sodipodi:ry="95.714287"
       d="m 431.42857,262.36218 a 98.571426,95.714287 0 1 1 -197.14285,0 98.571426,95.714287 0 1 1 197.14285,0 z"
       transform="matrix(0.11700768,0,0,0.11945505,50.074156,970.29101)" />
    <path
       sodipodi:type="arc"
       style="color:#000000;fill:#ffffff;fill-opacity:1;fill-rule:nonzero;stroke:none;stroke-width:1;marker:none;visibility:visible;display:inline;overflow:visible;enable-background:accumulate"
       id="path3386"
       sodipodi:cx="329"
       sodipodi:cy="230.86218"
       sodipodi:rx="15"
       sodipodi:ry="14.5"
       d="m 344,230.86218 a 15,14.5 0 1 1 -30,0 15,14.5 0 1 1 30,0 z"
       transform="matrix(0.18142996,0,0,0.17387574,24.494457,960.16868)" />
    <path
       d="m 344,230.86218 a 15,14.5 0 1 1 -30,0 15,14.5 0 1 1 30,0 z"
       sodipodi:ry="14.5"
       sodipodi:rx="15"
       sodipodi:cy="230.86218"
       sodipodi:cx="329"
       id="path3388"
       style="color:#000000;fill:#f98940;fill-opacity:1;fill-rule:nonzero;stroke:none;stroke-width:0.83987445;marker:none;visibility:visible;display:inline;overflow:visible;enable-background:accumulate"
       sodipodi:type="arc"
       transform="matrix(0.18142996,0,0,0.17582756,24.494457,959.74637)" />
    <path
       transform="matrix(0.18142996,0,0,0.17387574,33.810093,960.16868)"
       d="m 344,230.86218 a 15,14.5 0 1 1 -30,0 15,14.5 0 1 1 30,0 z"
       sodipodi:ry="14.5"
       sodipodi:rx="15"
       sodipodi:cy="230.86218"
       sodipodi:cx="329"
       id="path3392"
       style="color:#000000;fill:#ffffff;fill-opacity:1;fill-rule:nonzero;stroke:none;stroke-width:1;marker:none;visibility:visible;display:inline;overflow:visible;enable-background:accumulate"
       sodipodi:type="arc" />
    <path
       transform="matrix(0.18142996,0,0,0.17582756,33.810093,959.74637)"
       sodipodi:type="arc"
       style="color:#000000;fill:#f98940;fill-opacity:1;fill-rule:nonzero;stroke:none;stroke-width:0.83987445;marker:none;visibility:visible;display:inline;overflow:visible;enable-background:accumulate"
       id="path3394"
       sodipodi:cx="329"
       sodipodi:cy="230.86218"
       sodipodi:rx="15"
       sodipodi:ry="14.5"
       d="m 344,230.86218 a 15,14.5 0 1 1 -30,0 15,14.5 0 1 1 30,0 z" />
    <path
       sodipodi:type="arc"
       style="color:#000000;fill:#ffffff;fill-opacity:1;fill-rule:nonzero;stroke:#f98940;stroke-width:5.12106657;stroke-miterlimit:4;stroke-opacity:1;stroke-dasharray:none;marker:none;visibility:visible;display:inline;overflow:visible;enable-background:accumulate"
       id="path3398"
       sodipodi:cx="372.5"
       sodipodi:cy="262.36218"
       sodipodi:rx="15.5"
       sodipodi:ry="24.96332"
       d="m 388,262.36218 a 15.5,24.96332 0 1 1 -31,0 15.5,24.96332 0 1 1 31,0 z"
       transform="matrix(0.25977961,0,0,0.10670412,-7.6349071,980.46332)" />
    <path
       style="color:#000000;fill:#800000;fill-opacity:1;fill-rule:nonzero;stroke:none;stroke-width:5;marker:none;visibility:visible;display:inline;overflow:visible;enable-background:accumulate"
       d="m 80.521814,996.11892 3.322936,-0.20744 3.299886,0.20744 c 0.151966,0.01 0.274886,0.11749 0.274886,0.26342 l 0,0.31143 c 0,0.14594 -0.122594,0.26348 -0.274886,0.26348 l -3.330826,-0.17787 -3.291996,0.17787 c -0.152025,0.008 -0.274886,-0.11754 -0.274886,-0.26348 l 0,-0.31143 c 0,-0.14593 0.122612,-0.26342 0.274886,-0.26342 z"
       id="path3400"
       inkscape:connector-curvature="0"
       sodipodi:nodetypes="scsssscssss" />
    <path
       sodipodi:nodetypes="scsssscssss"
       inkscape:connector-curvature="0"
       id="path3402"
       d="m 97.040803,996.11892 -3.322891,-0.20744 -3.299886,0.20744 c -0.15198,0.01 -0.274936,0.11749 -0.274936,0.26342 l 0,0.31143 c 0,0.14594 0.122622,0.26348 0.274936,0.26348 l 3.330817,-0.17787 3.29196,0.17787 c 0.152052,0.008 0.274913,-0.11754 0.274913,-0.26348 l 0,-0.31143 c 0,-0.14593 -0.122607,-0.26342 -0.274913,-0.26342 z"
       style="color:#000000;fill:#800000;fill-opacity:1;fill-rule:nonzero;stroke:none;stroke-width:5;marker:none;visibility:visible;display:inline;overflow:visible;enable-background:accumulate" />
    <path
       style="color:#000000;fill:#f98940;fill-opacity:1;fill-rule:nonzero;stroke:none;stroke-width:0.42482722;marker:none;visibility:visible;display:inline;overflow:visible;enable-background:accumulate"
       d="m 88.26333,1001.8196 1.515335,0 -0.216476,2.4599 -1.113331,0 z"
       id="path3404"
       inkscape:connector-curvature="0"
       sodipodi:nodetypes="ccccc" />
    <path
       transform="matrix(0.09979065,0,0,0.17522471,44.356133,961.8887)"
       sodipodi:type="arc"
       style="color:#000000;fill:#ffb380;fill-opacity:1;fill-rule:nonzero;stroke:none;stroke-width:0.83987445;marker:none;visibility:visible;display:inline;overflow:visible;enable-background:accumulate"
       id="path3406"
       sodipodi:cx="329"
       sodipodi:cy="230.86218"
       sodipodi:rx="15"
       sodipodi:ry="14.5"
       d="m 344,230.86218 a 15,14.5 0 1 1 -30,0 15,14.5 0 1 1 30,0 z" />
    <path
       d="m 344,230.86218 a 15,14.5 0 1 1 -30,0 15,14.5 0 1 1 30,0 z"
       sodipodi:ry="14.5"
       sodipodi:rx="15"
       sodipodi:cy="230.86218"
       sodipodi:cx="329"
       id="path3408"
       style="color:#000000;fill:#ffb380;fill-opacity:1;fill-rule:nonzero;stroke:none;stroke-width:0.83987445;marker:none;visibility:visible;display:inline;overflow:visible;enable-background:accumulate"
       sodipodi:type="arc"
       transform="matrix(0.09979065,0,0,0.17522471,67.973221,961.8887)" />
    <path
       style="fill:#800000;stroke:none"
       d="m 78.247205,1005.6725 1.979233,-0.059 -0.4948,-3.5566 -0.247416,-3.73439 0.927771,-3.02311 2.47405,-1.54108 4.886228,-1.06702 4.020339,0.41494 5.009935,1.65975 1.608131,2.90449 0.680365,2.43032 -1.360747,4.8013 -0.247385,0.6521 2.226636,0.059 0.494795,-1.7782 0.24742,-3.91237 -0.18556,-11.61804 c 0,0 -2.22662,2.48958 -2.22662,2.19322 0,-0.29639 -3.030708,-5.74975 -3.030708,-5.74975 0,0 -0.556665,4.97917 -0.680373,4.74207 -0.123699,-0.23715 -5.999563,-5.86833 -5.999563,-5.86833 l 0.618526,5.09773 -6.741774,-5.63122 1.051475,6.40182 -6.741788,-5.98688 1.175165,4.26786 -3.154393,-1.36332 2.164788,6.22392 -2.226658,-2.43029 3.154429,9.66197 z"
       id="path3410"
       inkscape:connector-curvature="0" />
    <text
       xml:space="preserve"
       style="font-size:8.39999962px;font-style:normal;font-weight:normal;line-height:125%;letter-spacing:0px;word-spacing:0px;fill:#803300;fill-opacity:1;stroke:none;font-family:Sans"
       x="81.974281"
       y="1004.5937"
       id="text3011"
       sodipodi:linespacing="125%"><tspan
         sodipodi:role="line"
         id="tspan3013"
         x="81.974281"
         y="1004.5937">*</tspan></text>
    <text
       sodipodi:linespacing="125%"
       id="text3015"
       y="1004.5937"
       x="91.274277"
       style="font-size:8.39999962px;font-style:normal;font-weight:normal;line-height:125%;letter-spacing:0px;word-spacing:0px;fill:#803300;fill-opacity:1;stroke:none;font-family:Sans"
       xml:space="preserve"><tspan
         y="1004.5937"
         x="91.274277"
         id="tspan3017"
         sodipodi:role="line">*</tspan></text>
  </g>
</svg>
