<?xml version="1.0" encoding="UTF-8" standalone="no"?>
<!-- Created with Inkscape (http://www.inkscape.org/) -->

<svg
   xmlns:dc="http://purl.org/dc/elements/1.1/"
   xmlns:cc="http://creativecommons.org/ns#"
   xmlns:rdf="http://www.w3.org/1999/02/22-rdf-syntax-ns#"
   xmlns:svg="http://www.w3.org/2000/svg"
   xmlns="http://www.w3.org/2000/svg"
   xmlns:xlink="http://www.w3.org/1999/xlink"
   xmlns:sodipodi="http://sodipodi.sourceforge.net/DTD/sodipodi-0.dtd"
   xmlns:inkscape="http://www.inkscape.org/namespaces/inkscape"
   width="43"
   height="70"
   id="svg4134"
   version="1.1"
   inkscape:version="0.48.5 r10040"
   sodipodi:docname="begin_right_02.svg">
  <defs
     id="defs4136">
    <linearGradient
       id="linearGradient3855">
      <stop
         style="stop-color:#d43e28;stop-opacity:1;"
         offset="0"
         id="stop3857" />
      <stop
         id="stop3863"
         offset="1"
         style="stop-color:#ffff00;stop-opacity:1;" />
      <stop
         style="stop-color:#ffff00;stop-opacity:0;"
         offset="1"
         id="stop3859" />
    </linearGradient>
    <linearGradient
       id="linearGradient3863">
      <stop
         style="stop-color:#3e3e3e;stop-opacity:1;"
         offset="0"
         id="stop3865" />
      <stop
         style="stop-color:#3e3e3e;stop-opacity:0;"
         offset="1"
         id="stop3867" />
    </linearGradient>
    <linearGradient
       id="linearGradient3851">
      <stop
         style="stop-color:#930000;stop-opacity:1;"
         offset="0"
         id="stop3853" />
      <stop
         style="stop-color:#80ff4e;stop-opacity:0;"
         offset="1"
         id="stop3855" />
    </linearGradient>
    <linearGradient
       id="linearGradient3843">
      <stop
         style="stop-color:#848484;stop-opacity:1;"
         offset="0"
         id="stop3845" />
      <stop
         style="stop-color:#fbb364;stop-opacity:0;"
         offset="1"
         id="stop3847" />
    </linearGradient>
    <linearGradient
       id="linearGradient3833">
      <stop
         style="stop-color:#4e4e4e;stop-opacity:1;"
         offset="0"
         id="stop3835" />
      <stop
         style="stop-color:#000000;stop-opacity:0;"
         offset="1"
         id="stop3837" />
    </linearGradient>
    <linearGradient
       inkscape:collect="always"
       xlink:href="#linearGradient4427"
       id="linearGradient4433"
       x1="354.4404"
       y1="262.36218"
       x2="390.5596"
       y2="262.36218"
       gradientUnits="userSpaceOnUse" />
    <linearGradient
       inkscape:collect="always"
       id="linearGradient4427">
      <stop
         style="stop-color:#f98940;stop-opacity:1;"
         offset="0"
         id="stop4429" />
      <stop
         style="stop-color:#f98940;stop-opacity:0;"
         offset="1"
         id="stop4431" />
    </linearGradient>
    <radialGradient
       inkscape:collect="always"
       xlink:href="#linearGradient3855"
       id="radialGradient4031"
       cx="30.420158"
       cy="57.1465"
       fx="30.420158"
       fy="57.1465"
       r="4.0441275"
       gradientTransform="matrix(1,0,0,0.95599973,0,2.5144615)"
       gradientUnits="userSpaceOnUse" />
  </defs>
  <sodipodi:namedview
     id="base"
     pagecolor="#ffffff"
     bordercolor="#666666"
     borderopacity="1.0"
     inkscape:pageopacity="0.0"
     inkscape:pageshadow="2"
     inkscape:zoom="5.6568542"
     inkscape:cx="70.935251"
     inkscape:cy="43.39563"
     inkscape:document-units="px"
     inkscape:current-layer="layer1"
     showgrid="false"
     fit-margin-top="0"
     fit-margin-left="0"
     fit-margin-right="0"
     fit-margin-bottom="0"
     inkscape:window-width="1366"
     inkscape:window-height="721"
     inkscape:window-x="0"
     inkscape:window-y="25"
     inkscape:window-maximized="1" />
  <metadata
     id="metadata4139">
    <rdf:RDF>
      <cc:Work
         rdf:about="">
        <dc:format>image/svg+xml</dc:format>
        <dc:type
           rdf:resource="http://purl.org/dc/dcmitype/StillImage" />
        <dc:title />
      </cc:Work>
    </rdf:RDF>
  </metadata>
  <g
     inkscape:label="Capa 1"
     inkscape:groupmode="layer"
     id="layer1"
     transform="translate(-328.44935,-497.97233)">
    <rect
       style="color:#000000;fill:#b3b3b3;fill-opacity:1;fill-rule:nonzero;stroke:none;stroke-width:2.16390872;marker:none;visibility:visible;display:inline;overflow:visible;enable-background:accumulate"
       id="rect4134"
       width="3.2142856"
       height="4.6428571"
       x="-436.388"
       y="469.33984"
       transform="matrix(-0.98117335,-0.1931291,-0.1931291,0.98117335,0,0)" />
    <g
       id="g3919"
       transform="matrix(-0.98117335,-0.1931291,-0.2163046,1.0989142,816.59762,-5.6805285)">
      <rect
         y="547.30298"
         x="333.91489"
         height="8.5714293"
         width="2.5"
         id="rect3898"
         style="color:#000000;fill:#ff0000;fill-opacity:1;fill-rule:nonzero;stroke:none;stroke-width:1.87399995;marker:none;visibility:visible;display:inline;overflow:visible;enable-background:accumulate" />
      <rect
         y="549.80298"
         x="333.73627"
         height="6.4285712"
         width="3.2142859"
         id="rect3900"
         style="color:#000000;fill:#363636;fill-opacity:1;fill-rule:nonzero;stroke:none;stroke-width:1.60244286;marker:none;visibility:visible;display:inline;overflow:visible;enable-background:accumulate" />
    </g>
    <path
       sodipodi:type="arc"
       style="color:#000000;fill:#363636;fill-opacity:1;fill-rule:nonzero;stroke:none;stroke-width:1.87399995;marker:none;visibility:visible;display:inline;overflow:visible;enable-background:accumulate"
       id="path3859"
       sodipodi:cx="30.089285"
       sodipodi:cy="42.738739"
       sodipodi:rx="8.3035717"
       sodipodi:ry="11.428572"
       d="m 38.392857,42.738739 c 0,6.311826 -3.717636,11.428572 -8.303572,11.428572 -4.585936,0 -8.303572,-5.116746 -8.303572,-11.428572 0,-6.311826 3.717636,-11.428572 8.303572,-11.428572 4.42601,0 8.074071,4.778075 8.293373,10.862306"
       transform="matrix(-0.90732159,-0.1785925,-0.1931291,0.98117335,374.14151,498.23889)"
       sodipodi:start="0"
       sodipodi:end="6.2336167"
       sodipodi:open="true" />
    <rect
       y="445.56104"
       x="442.60153"
       height="6.7774453"
       width="4.6687212"
       id="rect3349"
       style="color:#000000;fill:#ffff00;fill-opacity:1;fill-rule:nonzero;stroke:none;stroke-width:0.83987445000000005;marker:none;visibility:visible;display:inline;overflow:visible;enable-background:accumulate"
       inkscape:transform-center-x="-6.2464898"
       inkscape:transform-center-y="-18.020433"
       transform="matrix(0.98117335,0.1931291,-0.1931291,0.98117335,0,0)" />
    <path
       transform="matrix(0.13465629,0.01326441,-0.0097693,0.09917506,310.06177,484.72615)"
       d="m 431.42857,262.36218 c 0,52.86154 -44.13193,95.71429 -98.57142,95.71429 -54.4395,0 -98.57143,-42.85275 -98.57143,-95.71429 0,-52.86154 44.13193,-95.71428 98.57143,-95.71428 54.43949,0 98.57142,42.85274 98.57142,95.71428 z"
       sodipodi:ry="95.714287"
       sodipodi:rx="98.571426"
       sodipodi:cy="262.36218"
       sodipodi:cx="332.85715"
       id="path3351"
       style="color:#000000;fill:#ffb380;fill-opacity:1;fill-rule:nonzero;stroke:none;stroke-width:0.83987445;marker:none;visibility:visible;display:inline;overflow:visible;enable-background:accumulate"
       sodipodi:type="arc"
       inkscape:transform-center-x="-1.1133607"
       inkscape:transform-center-y="-9.8617564" />
    <path
       sodipodi:nodetypes="ccccccc"
       inkscape:connector-curvature="0"
       id="path3357"
       d="m 345.43224,527.43097 9.79651,2.0986 -3.66218,11.08165 -1.76216,6.52584 -6.80676,-1.51001 0.96697,-6.17185 z"
       style="color:#000000;fill:#1a1a1a;fill-opacity:1;fill-rule:nonzero;stroke:none;stroke-width:0.83987445000000005;marker:none;visibility:visible;display:inline;overflow:visible;enable-background:accumulate"
       inkscape:transform-center-x="-3.8103105"
       inkscape:transform-center-y="-7.4976938" />
    <path
       sodipodi:type="arc"
       style="color:#000000;fill:#ffffff;fill-opacity:1;fill-rule:nonzero;stroke:none;stroke-width:1;marker:none;visibility:visible;display:inline;overflow:visible;enable-background:accumulate"
       id="path3392"
       sodipodi:cx="329"
       sodipodi:cy="230.86218"
       sodipodi:rx="15"
       sodipodi:ry="14.5"
       d="m 344,230.86218 c 0,8.00813 -6.71573,14.5 -15,14.5 -8.28427,0 -15,-6.49187 -15,-14.5 0,-8.00813 6.71573,-14.5 15,-14.5 8.28427,0 15,6.49187 15,14.5 z"
       transform="matrix(0.17363039,0.01710357,-0.01421995,0.14435669,308.55203,475.12015)"
       inkscape:transform-center-x="-11.186957"
       inkscape:transform-center-y="-10.94912" />
    <path
       d="m 344,230.86218 c 0,8.00813 -6.71573,14.5 -15,14.5 -8.28427,0 -15,-6.49187 -15,-14.5 0,-8.00813 6.71573,-14.5 15,-14.5 8.28427,0 15,6.49187 15,14.5 z"
       sodipodi:ry="14.5"
       sodipodi:rx="15"
       sodipodi:cy="230.86218"
       sodipodi:cx="329"
       id="path3394"
       style="color:#000000;fill:#f98940;fill-opacity:1;fill-rule:nonzero;stroke:none;stroke-width:0.83987445;marker:none;visibility:visible;display:inline;overflow:visible;enable-background:accumulate"
       sodipodi:type="arc"
       transform="matrix(0.17363039,0.01710357,-0.00676537,0.06867995,306.93915,491.49372)"
       inkscape:transform-center-x="-11.295058"
       inkscape:transform-center-y="-12.046447" />
    <path
       sodipodi:type="arc"
       style="color:#000000;fill:#008000;fill-opacity:1;fill-rule:nonzero;stroke:none;stroke-width:0.83987445;marker:none;visibility:visible;display:inline;overflow:visible;enable-background:accumulate"
       id="path3396"
       sodipodi:cx="329.1582"
       sodipodi:cy="240.07327"
       sodipodi:rx="6.0104074"
       sodipodi:ry="5.126524"
       d="m 335.16861,240.07327 c 0,2.8313 -2.69095,5.12653 -6.01041,5.12653 -3.31945,0 -6.0104,-2.29523 -6.0104,-5.12653 0,-2.8313 2.69095,-5.12652 6.0104,-5.12652 3.31946,0 6.01041,2.29522 6.01041,5.12652 z"
       transform="matrix(0.17363039,0.01710357,-0.01421995,0.14435669,309.43761,474.69202)"
       inkscape:transform-center-x="-11.969025"
       inkscape:transform-center-y="-10.044862" />
    <path
       transform="matrix(0.12275894,0.0052344,-0.00774897,0.10422525,317.27696,492.15737)"
       d="m 388,262.36218 c 0,5.24671 -6.93959,9.5 -15.5,9.5 -8.56041,0 -15.5,-4.25329 -15.5,-9.5 0,-5.2467 6.93959,-9.5 15.5,-9.5 8.56041,0 15.5,4.2533 15.5,9.5 z"
       sodipodi:ry="9.5"
       sodipodi:rx="15.5"
       sodipodi:cy="262.36218"
       sodipodi:cx="372.5"
       id="path3398"
       style="color:#000000;fill:#ffffff;fill-opacity:1;fill-rule:nonzero;stroke:url(#linearGradient4433);stroke-width:5.11922073;stroke-miterlimit:4;stroke-opacity:1;stroke-dasharray:none;marker:none;visibility:visible;display:inline;overflow:visible;enable-background:accumulate"
       sodipodi:type="arc"
       inkscape:transform-center-x="-9.765005"
       inkscape:transform-center-y="-3.5708971" />
    <path
       style="color:#000000;fill:#800000;fill-opacity:1;fill-rule:nonzero;stroke:none;stroke-width:5;marker:none;visibility:visible;display:inline;overflow:visible;enable-background:accumulate"
       d="m 366.12439,510.9279 -3.16308,-0.48549 -3.17498,-0.13885 c -0.14624,-0.006 -0.27271,0.0715 -0.28466,0.19279 l -0.0255,0.25856 c -0.0119,0.12116 0.0959,0.23026 0.24158,0.24462 l 3.20217,0.16639 3.13589,0.45795 c 0.14484,0.0213 0.27271,-0.0716 0.28465,-0.19279 l 0.0255,-0.25855 c 0.0119,-0.12117 -0.0958,-0.23028 -0.24155,-0.24463 z"
       id="path3402"
       inkscape:connector-curvature="0"
       sodipodi:nodetypes="scsssscssss"
       inkscape:transform-center-x="-11.714443"
       inkscape:transform-center-y="-14.057766" />
    <path
       sodipodi:nodetypes="ccccc"
       inkscape:connector-curvature="0"
       id="path3404"
       d="m 364.20899,516.97581 1.87643,0.18483 -0.46922,2.01572 -1.37864,-0.1358 z"
       style="color:#000000;fill:#f98940;fill-opacity:1;fill-rule:nonzero;stroke:none;stroke-width:0.42482722;marker:none;visibility:visible;display:inline;overflow:visible;enable-background:accumulate"
       inkscape:transform-center-x="-13.940582"
       inkscape:transform-center-y="-6.9467603" />
    <path
       d="m 344,230.86218 c 0,8.00813 -6.71573,14.5 -15,14.5 -8.28427,0 -15,-6.49187 -15,-14.5 0,-8.00813 6.71573,-14.5 15,-14.5 8.28427,0 15,6.49187 15,14.5 z"
       sodipodi:ry="14.5"
       sodipodi:rx="15"
       sodipodi:cy="230.86218"
       sodipodi:cx="329"
       id="path3406"
       style="color:#000000;fill:#ff9955;fill-opacity:1;fill-rule:nonzero;stroke:none;stroke-width:0.83987445;marker:none;visibility:visible;display:inline;overflow:visible;enable-background:accumulate"
       sodipodi:type="arc"
       transform="matrix(0.12357052,0.01217239,-0.01433027,0.14547665,313.82437,478.05323)"
       inkscape:transform-center-x="0.035869352"
       inkscape:transform-center-y="-9.379842" />
    <path
       style="fill:#800000;stroke:none"
       d="m 359.77022,499.1357 -8.80975,3.83977 1.17141,-4.13658 c 0,0 -4.67901,2.39161 -6.79786,3.5216 l -1.7674,4.44234 c -2.09236,0.46625 -4.25285,3.24889 -4.60318,6.8053 -0.39859,4.04633 1.90955,6.32035 3.86372,7.88224 1.64719,1.31631 5.22155,3.20471 6.07125,2.29894 0.8497,-0.90597 -1.48928,-5.92734 -1.08972,-7.48768 l 2.32164,-3.74987 3.73418,0.58044 -0.63577,3.58184 2.79006,0.9734 1.92114,-8.58801 3.04547,0.39114 0.71537,-0.0814 c 1.71595,0.81651 4.94371,0.0177 7.07213,-3.43385 l -2.97267,1.74205 3.19676,-4.87859 -4.03267,0.7265 1.80676,-3.40584 -8.84234,4.17061 z"
       id="path3410"
       inkscape:connector-curvature="0"
       sodipodi:nodetypes="cccccsssccccccccccccccc"
       inkscape:transform-center-x="-2.7509335"
       inkscape:transform-center-y="-13.590154" />
    <g
       id="g3416"
       transform="matrix(0.01884611,-0.0878304,0.03916086,0.00811934,350.40989,540.74465)"
       inkscape:transform-center-x="-7.4735159"
       inkscape:transform-center-y="0.96237927">
      <path
         sodipodi:nodetypes="ccccc"
         inkscape:connector-curvature="0"
         id="path3418"
         d="m 75.937335,343.49257 42.579695,0 6.64087,52.31602 -55.861436,0 z"
         style="color:#000000;fill:#ffb380;fill-opacity:1;fill-rule:nonzero;stroke:none;stroke-width:0.83987445;marker:none;visibility:visible;display:inline;overflow:visible;enable-background:accumulate" />
      <rect
         ry="4.5179267"
         y="389.39288"
         x="68.589363"
         height="35.641422"
         width="11.313708"
         id="rect3420"
         style="color:#000000;fill:#ffb380;fill-opacity:1;fill-rule:nonzero;stroke:none;stroke-width:0.83987445;marker:none;visibility:visible;display:inline;overflow:visible;enable-background:accumulate" />
      <rect
         ry="6.5541754"
         y="388.38889"
         x="80.610176"
         height="51.705162"
         width="14.142136"
         id="rect3422"
         style="color:#000000;fill:#ffb380;fill-opacity:1;fill-rule:nonzero;stroke:none;stroke-width:0.83987445;marker:none;visibility:visible;display:inline;overflow:visible;enable-background:accumulate" />
      <rect
         ry="8.3358927"
         y="388.38889"
         x="96.166527"
         height="65.760933"
         width="14.142136"
         id="rect3424"
         style="color:#000000;fill:#ffb380;fill-opacity:1;fill-rule:nonzero;stroke:none;stroke-width:0.83987445;marker:none;visibility:visible;display:inline;overflow:visible;enable-background:accumulate" />
      <rect
         ry="6.7450738"
         y="388.8909"
         x="111.72288"
         height="53.21114"
         width="14.142136"
         id="rect3426"
         style="color:#000000;fill:#ffb380;fill-opacity:1;fill-rule:nonzero;stroke:none;stroke-width:0.83987445;marker:none;visibility:visible;display:inline;overflow:visible;enable-background:accumulate" />
      <rect
         transform="matrix(0.81508153,-0.57934626,0.57415016,0.81875002,0,0)"
         ry="4.9051323"
         y="352.98563"
         x="-116.15137"
         height="38.696045"
         width="12.255621"
         id="rect3428"
         style="color:#000000;fill:#ffb380;fill-opacity:1;fill-rule:nonzero;stroke:none;stroke-width:0.83987445;marker:none;visibility:visible;display:inline;overflow:visible;enable-background:accumulate" />
    </g>
    <path
       sodipodi:nodetypes="ccccc"
       inkscape:transform-center-y="3.0444521"
       inkscape:transform-center-x="-1.198986"
       style="color:#000000;fill:#ffff00;fill-opacity:1;fill-rule:nonzero;stroke:none;stroke-width:0.83987445000000005;marker:none;visibility:visible;display:inline;overflow:visible;enable-background:accumulate"
       d="m 343.84198,544.33856 5.38691,0.0648 2.3096,10.38479 -7.00092,0.63463 z"
       id="path3160"
       inkscape:connector-curvature="0" />
    <path
       inkscape:transform-center-x="0.78787972"
       style="color:#000000;fill:#ffff00;fill-opacity:1;fill-rule:nonzero;stroke:none;stroke-width:0.83987445000000005;marker:none;visibility:visible;display:inline;overflow:visible;enable-background:accumulate"
       d="m 344.47279,554.22153 6.93382,0.66774 -2.04335,10.43346 -4.94467,-0.47388 z"
       id="path3162"
       inkscape:connector-curvature="0"
       sodipodi:nodetypes="ccccc"
       inkscape:transform-center-y="5.6890289" />
    <path
       inkscape:transform-center-y="12.261944"
       inkscape:transform-center-x="0.79546984"
       style="color:#000000;fill:#1a1a1a;fill-opacity:1;fill-rule:nonzero;stroke:none;stroke-width:3.08750724999999981;marker:none;visibility:visible;display:inline;overflow:visible;enable-background:accumulate"
       d="m 344.40558,564.71776 5.2271,0.50159 2.33579,2.75298 -8.12692,-0.96028 z"
       id="path3164"
       inkscape:connector-curvature="0"
       sodipodi:nodetypes="ccccc" />
    <path
       sodipodi:type="arc"
       style="color:#000000;fill:#ffff00;fill-opacity:1;fill-rule:nonzero;stroke:none;stroke-width:1;marker:none;visibility:visible;display:inline;overflow:visible;enable-background:accumulate"
       id="path3166"
       sodipodi:cx="85.294754"
       sodipodi:cy="57.072777"
       sodipodi:rx="3.800699"
       sodipodi:ry="2.032932"
       d="m 89.095453,57.072777 c 0,1.122757 -1.701631,2.032932 -3.800699,2.032932 -2.099068,0 -3.800699,-0.910175 -3.800699,-2.032932 0,-1.122758 1.701631,-2.032932 3.800699,-2.032932 2.025867,0 3.695652,0.849931 3.796031,1.932203"
       transform="matrix(0.82179298,-0.32134145,0.36738207,0.93543132,257.38063,529.27416)"
       sodipodi:start="0"
       sodipodi:end="6.2336167"
       sodipodi:open="true"
       inkscape:transform-center-x="0.25770479"
       inkscape:transform-center-y="1.1700227" />
    <path
       sodipodi:type="arc"
       style="color:#000000;fill:#b3b3b3;fill-opacity:1;fill-rule:nonzero;stroke:none;stroke-width:1.87399995;marker:none;visibility:visible;display:inline;overflow:visible;enable-background:accumulate"
       id="path3886"
       sodipodi:cx="28.482143"
       sodipodi:cy="38.095882"
       sodipodi:rx="1.875"
       sodipodi:ry="8.0357141"
       d="m 30.357143,38.095882 c 0,4.438003 -0.839466,8.035715 -1.875,8.035715 -1.035534,0 -1.875,-3.597712 -1.875,-8.035715 0,-4.438002 0.839466,-8.035714 1.875,-8.035714 0.999422,0 1.823178,3.359584 1.872697,7.637558"
       transform="matrix(-1.3082311,-0.25750547,-0.1931291,0.98117335,380.40204,504.20312)"
       sodipodi:start="0"
       sodipodi:end="6.2336167"
       sodipodi:open="true" />
    <path
       sodipodi:type="arc"
       style="color:#000000;fill:#0000ff;fill-opacity:1;fill-rule:nonzero;stroke:none;stroke-width:1.87399995;marker:none;visibility:visible;display:inline;overflow:visible;enable-background:accumulate"
       id="path3890"
       sodipodi:cx="26.964285"
       sodipodi:cy="41.578026"
       sodipodi:rx="1.25"
       sodipodi:ry="1.6964285"
       d="m 28.214285,41.578026 c 0,0.936911 -0.559644,1.696428 -1.25,1.696428 -0.690356,0 -1.25,-0.759517 -1.25,-1.696428 0,-0.936912 0.559644,-1.696429 1.25,-1.696429 0.666281,0 1.215451,0.709246 1.248465,1.612374"
       transform="matrix(-0.98117335,-0.1931291,-0.495005,2.514824,382.41402,435.1139)"
       sodipodi:start="0"
       sodipodi:end="6.2336167"
       sodipodi:open="true" />
    <rect
       style="color:#000000;fill:#ffff00;fill-opacity:1;fill-rule:nonzero;stroke:none;stroke-width:0.94169312999999999;marker:none;visibility:visible;display:inline;overflow:visible;enable-background:accumulate"
       id="rect3927"
       width="3.8727372"
       height="18.924229"
       x="454.05042"
       y="448.85812"
       inkscape:transform-center-y="1.2595548"
       transform="matrix(-0.20456929,0.97885209,0.98165207,0.19068091,0,0)"
       inkscape:transform-center-x="-6.4844035" />
    <rect
       style="color:#000000;fill:#363636;fill-opacity:1;fill-rule:nonzero;stroke:none;stroke-width:1.80209351;marker:none;visibility:visible;display:inline;overflow:visible;enable-background:accumulate"
       id="rect3946"
       width="23.928572"
       height="3.0357144"
       x="-463.71188"
       y="456.66125"
       transform="matrix(-0.98117335,-0.1931291,-0.1931291,0.98117335,0,0)" />
    <path
       sodipodi:type="star"
       style="color:#000000;fill:url(#radialGradient4031);fill-opacity:1;fill-rule:nonzero;stroke:none;stroke-width:2.16390872;marker:none;visibility:visible;display:inline;overflow:visible;enable-background:accumulate"
       id="path3085"
       sodipodi:sides="3"
       sodipodi:cx="30"
       sodipodi:cy="57.950069"
       sodipodi:r1="4.744761"
       sodipodi:r2="3.0700665"
       sodipodi:arg1="0.34555558"
       sodipodi:arg2="1.3927531"
       inkscape:flatsided="false"
       inkscape:rounded="0"
       inkscape:randomized="0"
       d="m 34.464286,59.557212 -3.920565,1.414393 -4.167691,0.04108 0.735383,-4.102505 2.048271,-3.629865 3.185182,2.688112 z"
       transform="matrix(1.5688306,-0.08576375,0.29091699,-2.0662953,269.36,678.39769)" />
  </g>
</svg>
