<?xml version="1.0" encoding="UTF-8" standalone="no"?>
<svg
   xmlns:dc="http://purl.org/dc/elements/1.1/"
   xmlns:cc="http://creativecommons.org/ns#"
   xmlns:rdf="http://www.w3.org/1999/02/22-rdf-syntax-ns#"
   xmlns:svg="http://www.w3.org/2000/svg"
   xmlns="http://www.w3.org/2000/svg"
   xmlns:xlink="http://www.w3.org/1999/xlink"
   xmlns:sodipodi="http://sodipodi.sourceforge.net/DTD/sodipodi-0.dtd"
   xmlns:inkscape="http://www.inkscape.org/namespaces/inkscape"
   width="26"
   height="33"
   id="svg3126"
   version="1.1"
   inkscape:version="0.48.5 r10040"
   sodipodi:docname="03.svg"
   inkscape:export-filename="D:\Operator 2\Downloads\green-shield.png"
   inkscape:export-xdpi="90"
   inkscape:export-ydpi="90">
  <metadata
     id="metadata3142">
    <rdf:RDF>
      <cc:Work
         rdf:about="">
        <dc:format>image/svg+xml</dc:format>
        <dc:type
           rdf:resource="http://purl.org/dc/dcmitype/StillImage" />
        <dc:title>Green shield</dc:title>
      </cc:Work>
    </rdf:RDF>
  </metadata>
  <defs
     id="defs3140">
    <linearGradient
       id="linearGradient3867">
      <stop
         style="stop-color:#fff8f8;stop-opacity:0.57055217;"
         offset="0"
         id="stop3869" />
      <stop
         style="stop-color:#000000;stop-opacity:0;"
         offset="1"
         id="stop3871" />
    </linearGradient>
    <linearGradient
       id="linearGradient3857">
      <stop
         style="stop-color:#937272;stop-opacity:1;"
         offset="0"
         id="stop3859" />
      <stop
         style="stop-color:#000000;stop-opacity:0;"
         offset="1"
         id="stop3861" />
    </linearGradient>
    <linearGradient
       id="linearGradient3823">
      <stop
         style="stop-color:#e50909;stop-opacity:1;"
         offset="0"
         id="stop3825" />
      <stop
         id="stop3847"
         offset="1"
         style="stop-color:#d32e2e;stop-opacity:1;" />
    </linearGradient>
    <linearGradient
       id="linearGradient3936">
      <stop
         style="stop-color:#007f00;stop-opacity:1;"
         offset="0"
         id="stop3938" />
      <stop
         style="stop-color:#007f00;stop-opacity:0.54901963;"
         offset="1"
         id="stop3940" />
    </linearGradient>
    <linearGradient
       id="linearGradient3926">
      <stop
         style="stop-color:#969696;stop-opacity:1;"
         offset="0"
         id="stop3928" />
      <stop
         style="stop-color:#c8c8c8;stop-opacity:0.78431374;"
         offset="1"
         id="stop3930" />
    </linearGradient>
    <linearGradient
       id="linearGradient3918">
      <stop
         style="stop-color:#000000;stop-opacity:1;"
         offset="0"
         id="stop3920" />
      <stop
         style="stop-color:#000000;stop-opacity:0;"
         offset="1"
         id="stop3922" />
    </linearGradient>
    <linearGradient
       inkscape:collect="always"
       xlink:href="#linearGradient3926"
       id="linearGradient3934"
       x1="-1.7499996"
       y1="553"
       x2="905.75"
       y2="553"
       gradientUnits="userSpaceOnUse"
       gradientTransform="matrix(0.02851723,0,0,0.02458368,4.3493813,3.9955916)" />
    <linearGradient
       inkscape:collect="always"
       xlink:href="#linearGradient3867"
       id="linearGradient3873"
       x1="-477.99622"
       y1="604.55084"
       x2="-42.692032"
       y2="604.55084"
       gradientUnits="userSpaceOnUse"
       gradientTransform="matrix(0.01997058,0,0,0.01969829,26.915726,5.4492326)" />
    <filter
       inkscape:label="Evanescent"
       inkscape:menu="Blurs"
       inkscape:menu-tooltip="Blur the contents of objects, preserving the outline and adding progressive transparency at edges"
       color-interpolation-filters="sRGB"
       id="filter3016">
      <feGaussianBlur
         result="result6"
         stdDeviation="3"
         in="SourceGraphic"
         id="feGaussianBlur3018" />
      <feColorMatrix
         values="1 0 0 0 0 0 1 0 0 0 0 0 1 0 0 0 0 0 1 0 "
         result="result7"
         in="SourceGraphic"
         id="feColorMatrix3020" />
      <feComposite
         operator="in"
         in="result6"
         in2="result7"
         id="feComposite3022" />
    </filter>
    <linearGradient
       inkscape:collect="always"
       xlink:href="#linearGradient3926"
       id="linearGradient3028"
       gradientUnits="userSpaceOnUse"
       gradientTransform="matrix(0.02851723,0,0,0.02458368,4.3493813,3.9955916)"
       x1="-1.7499996"
       y1="553"
       x2="905.75"
       y2="553" />
    <linearGradient
       inkscape:collect="always"
       xlink:href="#linearGradient3867"
       id="linearGradient3030"
       gradientUnits="userSpaceOnUse"
       gradientTransform="matrix(0.01997058,0,0,0.01969829,26.915726,5.4492326)"
       x1="-477.99622"
       y1="604.55084"
       x2="-42.692032"
       y2="604.55084" />
  </defs>
  <sodipodi:namedview
     pagecolor="#ffffff"
     bordercolor="#666666"
     borderopacity="1"
     objecttolerance="10"
     gridtolerance="10"
     guidetolerance="10"
     inkscape:pageopacity="0"
     inkscape:pageshadow="2"
     inkscape:window-width="1366"
     inkscape:window-height="721"
     id="namedview3138"
     showgrid="false"
     inkscape:zoom="19.313094"
     inkscape:cx="23.250281"
     inkscape:cy="19.610213"
     inkscape:window-x="0"
     inkscape:window-y="25"
     inkscape:window-maximized="1"
     inkscape:current-layer="svg3126" />
  <title
     id="title3128">Green shield</title>
  <g
     id="g3086"
     transform="matrix(1.0085504,0,0,1.10737,-4.3865708,-2.7023663)">
    <path
       inkscape:export-ydpi="90"
       inkscape:export-xdpi="90"
       id="svg_2"
       d="m 17.182135,4.0447588 0,0 0.05703,0 0.08556,0 1.283276,0.5408413 q 1.254758,0.540841 2.167309,0.8850124 0.884035,0.3441719 1.596966,0.5408413 0.712931,0.2458369 1.197723,0.3687555 0.456275,0.1229186 1.14069,0.2704208 0.684413,0.147502 1.825102,0.3441714 1.112173,0.1966697 2.224345,0.3441716 1.112172,0.1475022 1.22624,0.1966697 0.08555,0.024585 0.11407,0.024585 0,0.024585 0.02851,0.024585 l 0,0 0,0.3933389 0,0.3687552 0,0 q 0,0 -0.02851,0.1229183 -0.02852,0.1229186 -0.08555,1.3275195 -0.05703,1.2291843 -0.171104,3.2450463 -0.171104,1.991278 -0.285172,2.655037 -0.171104,0.688344 -0.456276,1.79461 -0.285172,1.106266 -0.456275,1.573356 -0.171104,0.46709 -0.570345,1.352102 -0.399242,0.885013 -0.741448,1.524189 -0.342207,0.663759 -0.969586,1.573355 -0.627379,0.909597 -1.254758,1.671691 -0.598862,0.73751 -0.684414,0.885012 -0.114068,0.122919 -0.142586,0.122919 -0.02851,0 -0.19962,0.221253 -0.171104,0.196669 -0.199621,0.196669 -0.02851,0 -0.02851,0.02458 0,0.02459 -0.513311,0.46709 -0.456276,0.46709 -0.655896,0.614593 -0.199621,0.147501 -0.199621,0.172086 0,0.02458 -0.05703,0.04917 -0.02852,0 -0.02852,0.02458 -0.02851,0.02458 -0.541827,0.417923 -0.51331,0.368755 -1.026621,0.762095 -0.541827,0.393338 -0.541827,0.417922 0,0.02458 -0.142586,0.122919 -0.171104,0.07375 -0.285172,0.172086 -0.08555,0.09834 -0.228138,0.172086 -0.171103,0.07375 -0.741448,0.417921 -0.598862,0.295005 -1.083655,0.491675 -0.484794,0.196663 -0.62738,0.196663 -0.142586,0 -0.456276,-0.122918 -0.313689,-0.122919 -1.083655,-0.565425 -0.798482,-0.393339 -1.568448,-0.958764 -0.769964,-0.565424 -0.855516,-0.639175 -0.08555,-0.07375 -0.342207,-0.245837 -0.256655,-0.172086 -0.655896,-0.516259 -0.427758,-0.344171 -0.941069,-0.811261 -0.513309,-0.491674 -0.541827,-0.491674 -0.02852,0 -0.114069,-0.122918 -0.114069,-0.09833 -0.19962,-0.19667 -0.114069,-0.07375 -0.171104,-0.147502 -0.02852,-0.09833 -0.08555,-0.09833 -0.02852,-0.02458 -0.114069,-0.147502 -0.057034,-0.09833 -0.085552,-0.09833 -0.028517,0 -0.3707239,-0.442507 Q 9.225828,25.088393 8.7410351,24.40005 8.2277248,23.711707 7.7999664,23.072531 7.3722079,22.433356 7.115553,21.941682 6.8588978,21.450008 6.7733461,21.302506 6.7163116,21.155004 6.3741048,20.417494 6.0604153,19.655399 5.8037602,18.942473 5.5471051,18.254129 5.2619327,17.12328 4.9767605,15.992431 4.8626915,15.304088 4.7486226,14.615744 4.6345536,13.140723 4.5204847,11.690285 4.4919675,10.952775 4.4634502,10.215264 4.4064158,9.5023368 l -0.057034,-0.712926 0,-0.6145925 0,-0.5900083 0,0 0.028518,0 0,-0.024585 0.028517,0 0,0 0,-0.024585 2.3098958,-0.3441715 Q 9.0262075,6.8472969 9.6535865,6.6997947 10.309483,6.5522924 11.165,6.3064556 q 0.855516,-0.2458369 1.796585,-0.565425 0.969585,-0.319588 2.252861,-0.860429 1.283275,-0.540841 1.625483,-0.6883432 0.342206,-0.1475023 0.342206,-0.1475023 z"
       inkscape:connector-curvature="0"
       style="fill:url(#linearGradient3934);fill-opacity:1;fill-rule:evenodd;stroke:none" />
    <path
       style="fill:#800000;fill-opacity:1;fill-rule:evenodd;stroke:none"
       inkscape:connector-curvature="0"
       d="m 17.37653,6.5523508 0,0 0.04392,0 0.0659,0 0.990644,0.4324612 q 0.968682,0.4324608 1.673224,0.7076567 0.682578,0.2751952 1.233359,0.4324401 0.550234,0.1965782 0.924204,0.2948532 0.352539,0.09829 0.880815,0.216218 0.52827,0.117952 1.409085,0.275219 0.858846,0.157244 1.717156,0.275195 0.85885,0.117927 0.946941,0.157245 0.06621,0.01966 0.08817,0.01966 0,0.01966 0.02197,0.01966 l 0,0 0,0.314513 0,0.294853 0,0 q 0,0 -0.02197,0.09829 -0.02197,0.09827 -0.06589,1.061462 -0.04448,0.982859 -0.13234,2.594697 -0.132338,1.592224 -0.220201,2.122951 -0.131816,0.550386 -0.352003,1.434945 -0.220204,0.88456 -0.35254,1.258052 -0.13181,0.373493 -0.440409,1.081113 -0.308072,0.707665 -0.572207,1.218732 -0.264133,0.530738 -0.748474,1.25805 -0.484338,0.727329 -0.968695,1.336693 -0.462356,0.589707 -0.528796,0.70762 -0.08787,0.0983 -0.109833,0.0983 -0.02197,0 -0.1543,0.176891 -0.1318,0.15728 -0.153789,0.15728 -0.02248,0 -0.02248,0.01966 0,0.01966 -0.395935,0.373446 -0.352539,0.373494 -0.506303,0.491454 -0.154308,0.11791 -0.154308,0.137549 0,0.01964 -0.04393,0.03927 -0.02197,0 -0.02197,0.01964 -0.02197,0.01968 -0.418444,0.334263 -0.39647,0.294763 -0.792422,0.609388 -0.418426,0.314399 -0.418426,0.334037 0,0.01986 -0.11037,0.09839 -0.131798,0.05891 -0.220204,0.13769 -0.0659,0.07855 -0.175728,0.13746 -0.132344,0.05912 -0.572751,0.334241 -0.462373,0.235872 -0.836338,0.393175 -0.374509,0.157098 -0.484338,0.157098 -0.110375,0 -0.352546,-0.09819 -0.24217,-0.09818 -0.836345,-0.452086 -0.616674,-0.314629 -1.211384,-0.76669 -0.594172,-0.452087 -0.660067,-0.510974 -0.06645,-0.05914 -0.264678,-0.196603 -0.197693,-0.137667 -0.506309,-0.412792 -0.330032,-0.275215 -0.726506,-0.648708 -0.395931,-0.393153 -0.418437,-0.393153 -0.02197,0 -0.08787,-0.09825 -0.08786,-0.07864 -0.154302,-0.157282 -0.08787,-0.05898 -0.131799,-0.117934 -0.02197,-0.07862 -0.06589,-0.07862 -0.02206,-0.01966 -0.08841,-0.11796 -0.04393,-0.07864 -0.06589,-0.07864 -0.02196,0 -0.286099,-0.353786 -0.286108,-0.353825 -0.66062,-0.904211 -0.396477,-0.5504 -0.726509,-1.061502 Q 9.8022848,21.255717 9.6045904,20.862564 9.4062986,20.469458 9.3400385,20.351497 9.2960545,20.233539 9.0318938,19.643833 8.7897249,19.034467 8.5915131,18.464421 8.3933256,17.914034 8.173406,17.009815 7.953229,16.105596 7.8649771,15.55521 7.7770334,15.004824 7.6887839,13.825411 7.6008161,12.665659 7.5788242,12.075954 7.5568298,11.486245 7.5128459,10.916196 l -0.043983,-0.570048 0,-0.491439 0,-0.471755 0,0 0.021992,0 0,-0.01966 0.021991,0 0,0 0,-0.01966 1.7832086,-0.275195 Q 11.079572,8.793249 11.563913,8.675299 12.070219,8.557371 12.730829,8.360788 13.39144,8.1642254 14.117949,7.9086899 14.866424,7.6531555 15.857067,7.2206912 16.847715,6.7882531 17.111852,6.6703037 17.37653,6.5523523 17.37653,6.5523523 z"
       id="path3148"
       inkscape:export-xdpi="90"
       inkscape:export-ydpi="90" />
    <path
       sodipodi:nodetypes="cccccccccccccccccccccccccccccscssccsccccscccccccc"
       inkscape:export-ydpi="90"
       inkscape:export-xdpi="90"
       id="path3865"
       d="m 17.8433,7.5176354 0,0 0.03612,0 0.05419,0 0.814668,0.3929043 c 0.531072,0.2619364 0.989738,0.4762463 1.375998,0.6429293 0.374218,0.166682 0.712308,0.297643 1.014267,0.392885 0.301661,0.119065 0.555006,0.208359 0.760031,0.267883 0.193277,0.05953 0.434727,0.125014 0.72435,0.196442 0.289619,0.07144 0.67588,0.15479 1.15878,0.250044 0.470854,0.09524 0.941561,0.178582 1.412123,0.250024 0.470857,0.07143 0.730434,0.119047 0.77873,0.142861 0.0363,0.01191 0.06046,0.01786 0.07251,0.01786 0,0.01191 0.006,0.01786 0.01806,0.01786 l 0,0 0,0.285744 0,0.267885 0,0 -0.01806,0.0893 c -0.01204,0.05952 -0.03011,0.380977 -0.05419,0.964371 -0.02438,0.595306 -0.06066,1.381094 -0.108832,2.357365 -0.07255,0.964391 -0.132915,1.607313 -0.181085,1.928767 -0.07227,0.333363 -0.168758,0.767926 -0.289474,1.303693 -0.120725,0.535768 -0.217363,0.91676 -0.289915,1.142979 -0.07226,0.226221 -0.19299,0.553629 -0.362177,0.982226 -0.168897,0.428624 -0.325752,0.797709 -0.47056,1.107255 -0.14481,0.321463 -0.349983,0.702456 -0.615518,1.14298 -0.265535,0.440532 -0.531074,0.845342 -0.796619,1.214427 -0.253483,0.357178 -0.398437,0.571477 -0.434861,0.642894 -0.04817,0.05954 -0.07828,0.08931 -0.09032,0.08931 -0.01204,0 -0.05434,0.05357 -0.126892,0.160714 -0.07226,0.09526 -0.114414,0.142893 -0.12647,0.142893 -0.01233,0 -0.01849,0.006 -0.01849,0.01786 0,0.01191 -0.108533,0.125004 -0.325603,0.339287 -0.193276,0.226222 -0.332064,0.375055 -0.416364,0.446502 -0.0846,0.07142 -0.126897,0.113073 -0.126897,0.124969 0,0.01189 -0.01204,0.02379 -0.03613,0.03568 -0.01204,0 -0.01806,0.006 -0.01806,0.01784 -0.01204,0.01192 -0.126746,0.113149 -0.344112,0.303687 -0.217363,0.178536 -0.434581,0.363086 -0.651659,0.553648 -0.229398,0.190428 -0.344097,0.291588 -0.344097,0.303485 0,0.01204 -0.03026,0.04183 -0.09076,0.08939 -0.07226,0.03568 -0.13262,0.07738 -0.181087,0.125096 -0.03613,0.04757 -0.0843,0.0892 -0.144513,0.124887 -0.07255,0.03581 -0.229559,0.13703 -0.471009,0.303667 -0.253492,0.142867 -0.482749,0.261936 -0.687772,0.357213 -0.205322,0.09515 -0.338089,0.142727 -0.398302,0.142727 -1.027787,-6.844861 -0.0341,-12.007301 -0.217669,-19.5732685 z"
       inkscape:connector-curvature="0"
       style="fill:url(#linearGradient3873);fill-opacity:1;fill-rule:evenodd;stroke:none" />
  </g>
  <path
     sodipodi:type="star"
     style="color:#000000;fill:#ffffff;fill-opacity:1;fill-rule:nonzero;stroke:none;stroke-width:1;marker:none;visibility:visible;display:inline;overflow:visible;enable-background:accumulate"
     id="path3115"
     sodipodi:sides="6"
     sodipodi:cx="21.125565"
     sodipodi:cy="11.492632"
     sodipodi:r1="5.3379426"
     sodipodi:r2="2.1351771"
     sodipodi:arg1="0.31561566"
     sodipodi:arg2="0.83921444"
     inkscape:flatsided="false"
     inkscape:rounded="0"
     inkscape:randomized="0"
     d="m 26.199842,13.149539 -3.647878,-0.06808 -0.324184,3.634081 -1.764978,-3.193195 -3.3093,1.536289 1.8829,-3.125114 -2.985115,-2.097793 3.647878,0.068082 0.324184,-3.6340816 1.764978,3.1931955 3.3093,-1.5362887 -1.8829,3.1251138 z"
     transform="matrix(0.84762051,0.25702634,-0.28221023,0.93067183,5.9119767,-6.3881561)" />
</svg>
