<?xml version="1.0" encoding="UTF-8" standalone="no"?>
<!-- Created with Inkscape (http://www.inkscape.org/) -->

<svg
   xmlns:dc="http://purl.org/dc/elements/1.1/"
   xmlns:cc="http://creativecommons.org/ns#"
   xmlns:rdf="http://www.w3.org/1999/02/22-rdf-syntax-ns#"
   xmlns:svg="http://www.w3.org/2000/svg"
   xmlns="http://www.w3.org/2000/svg"
   xmlns:sodipodi="http://sodipodi.sourceforge.net/DTD/sodipodi-0.dtd"
   xmlns:inkscape="http://www.inkscape.org/namespaces/inkscape"
   width="261.24408"
   height="164.2968"
   id="svg4242"
   version="1.1"
   inkscape:version="0.48.5 r10040"
   sodipodi:docname="Documento nuevo 8">
  <defs
     id="defs4244" />
  <sodipodi:namedview
     id="base"
     pagecolor="#ffffff"
     bordercolor="#666666"
     borderopacity="1.0"
     inkscape:pageopacity="0"
     inkscape:pageshadow="2"
     inkscape:zoom="0.35"
     inkscape:cx="278.46594"
     inkscape:cy="337.13338"
     inkscape:document-units="px"
     inkscape:current-layer="layer1"
     showgrid="false"
     fit-margin-top="0"
     fit-margin-left="0"
     fit-margin-right="0"
     fit-margin-bottom="0"
     inkscape:window-width="569"
     inkscape:window-height="416"
     inkscape:window-x="0"
     inkscape:window-y="25"
     inkscape:window-maximized="0" />
  <metadata
     id="metadata4247">
    <rdf:RDF>
      <cc:Work
         rdf:about="">
        <dc:format>image/svg+xml</dc:format>
        <dc:type
           rdf:resource="http://purl.org/dc/dcmitype/StillImage" />
        <dc:title></dc:title>
      </cc:Work>
    </rdf:RDF>
  </metadata>
  <g
     inkscape:label="Capa 1"
     inkscape:groupmode="layer"
     id="layer1"
     transform="translate(-71.534062,-705.19875)">
    <g
       transform="translate(-1.7395082e-7,3.2727508e-5)"
       id="g3785"
       style="fill:#ffffff;fill-opacity:1">
      <path
         style="color:#000000;fill:#ffffff;fill-opacity:1;fill-rule:nonzero;stroke:none;stroke-width:1.07376683;marker:none;visibility:visible;display:inline;overflow:visible;enable-background:accumulate"
         d="m 214.28125,705.2059 c -26.16612,-0.45241 -49.53773,20.53506 -54.375,45.8125 -29.98917,-0.99614 -63.441172,8.92002 -81.024001,34.79009 -11.644432,16.68388 -9.000407,40.4977 4.756358,55.14658 23.061423,25.39789 60.678563,32.41778 93.378563,26.64817 9.45441,-1.73893 18.71165,-4.67556 27.32658,-8.95979 29.81546,11.9245 63.90076,12.30366 94.50065,3.08984 13.58683,-4.68891 29.41305,-11.94783 33.60127,-27.0108 2.71521,-15.02717 -11.73642,-25.44786 -23.84294,-30.82172 -14.60766,-6.51578 -30.63697,-9.29302 -46.54023,-9.97607 15.74359,-26.29485 7.36045,-64.00701 -18.89015,-80.23312 -8.56448,-5.5039 -18.70458,-8.51405 -28.8911,-8.48568 z"
         id="path3755"
         inkscape:connector-curvature="0" />
    </g>
  </g>
</svg>
