<?xml version="1.0" encoding="UTF-8" standalone="no"?>
<!-- Created with Inkscape (http://www.inkscape.org/) -->

<svg
   xmlns:dc="http://purl.org/dc/elements/1.1/"
   xmlns:cc="http://creativecommons.org/ns#"
   xmlns:rdf="http://www.w3.org/1999/02/22-rdf-syntax-ns#"
   xmlns:svg="http://www.w3.org/2000/svg"
   xmlns="http://www.w3.org/2000/svg"
   xmlns:sodipodi="http://sodipodi.sourceforge.net/DTD/sodipodi-0.dtd"
   xmlns:inkscape="http://www.inkscape.org/namespaces/inkscape"
   width="207.13501"
   height="148.51031"
   id="svg4362"
   version="1.1"
   inkscape:version="0.48.5 r10040"
   sodipodi:docname="Documento nuevo 16">
  <defs
     id="defs4364" />
  <sodipodi:namedview
     id="base"
     pagecolor="#ffffff"
     bordercolor="#666666"
     borderopacity="1.0"
     inkscape:pageopacity="0.0"
     inkscape:pageshadow="2"
     inkscape:zoom="0.35"
     inkscape:cx="-112.79636"
     inkscape:cy="459.94782"
     inkscape:document-units="px"
     inkscape:current-layer="layer1"
     showgrid="false"
     fit-margin-top="0"
     fit-margin-left="0"
     fit-margin-right="0"
     fit-margin-bottom="0"
     inkscape:window-width="569"
     inkscape:window-height="416"
     inkscape:window-x="0"
     inkscape:window-y="25"
     inkscape:window-maximized="0" />
  <metadata
     id="metadata4367">
    <rdf:RDF>
      <cc:Work
         rdf:about="">
        <dc:format>image/svg+xml</dc:format>
        <dc:type
           rdf:resource="http://purl.org/dc/dcmitype/StillImage" />
        <dc:title></dc:title>
      </cc:Work>
    </rdf:RDF>
  </metadata>
  <g
     inkscape:label="Capa 1"
     inkscape:groupmode="layer"
     id="layer1"
     transform="translate(-462.79636,-843.79968)">
    <g
       transform="translate(2.1103936e-6,3.2617188e-5)"
       id="g3797">
      <path
         style="color:#000000;fill:#ffffff;fill-opacity:1;fill-rule:nonzero;stroke:none;stroke-width:1.07376683;marker:none;visibility:visible;display:inline;overflow:visible;enable-background:accumulate"
         d="m 585,843.79965 c -16.66059,0.30048 -34.9717,3.11047 -47.48271,15.07823 -4.50958,4.65752 -3.44281,12.31538 -11.90367,10.6219 -25.59945,4.14141 -52.17718,19.40614 -60.61255,45.24203 -6.90128,20.55766 3.12895,43.37783 19.93319,55.94921 26.29883,20.4015 63.49133,23.88541 94.22199,12.20238 23.54881,15.76869 58.07921,11.32812 76.56479,-10.28599 17.55232,-18.93457 19.04649,-50.12412 3.35591,-70.62232 -6.93425,-9.46471 -16.81378,-16.70729 -27.88945,-20.56044 8.63747,-6.40885 7.15062,-19.70366 -1.58381,-25.24126 C 616.99435,846.64553 600.4364,843.98812 585,843.79965 z"
         id="path3771"
         inkscape:connector-curvature="0" />
    </g>
  </g>
</svg>
