<?xml version="1.0" encoding="UTF-8" standalone="no"?>
<!-- Created with Inkscape (http://www.inkscape.org/) -->

<svg
   xmlns:dc="http://purl.org/dc/elements/1.1/"
   xmlns:cc="http://creativecommons.org/ns#"
   xmlns:rdf="http://www.w3.org/1999/02/22-rdf-syntax-ns#"
   xmlns:svg="http://www.w3.org/2000/svg"
   xmlns="http://www.w3.org/2000/svg"
   xmlns:sodipodi="http://sodipodi.sourceforge.net/DTD/sodipodi-0.dtd"
   xmlns:inkscape="http://www.inkscape.org/namespaces/inkscape"
   width="219.6904"
   height="122.95966"
   id="svg4302"
   version="1.1"
   inkscape:version="0.48.5 r10040"
   sodipodi:docname="Documento nuevo 12">
  <defs
     id="defs4304" />
  <sodipodi:namedview
     id="base"
     pagecolor="#ffffff"
     bordercolor="#666666"
     borderopacity="1.0"
     inkscape:pageopacity="0.0"
     inkscape:pageshadow="2"
     inkscape:zoom="0.35"
     inkscape:cx="109.8452"
     inkscape:cy="61.479831"
     inkscape:document-units="px"
     inkscape:current-layer="layer1"
     showgrid="false"
     fit-margin-top="0"
     fit-margin-left="0"
     fit-margin-right="0"
     fit-margin-bottom="0"
     inkscape:window-width="569"
     inkscape:window-height="416"
     inkscape:window-x="0"
     inkscape:window-y="25"
     inkscape:window-maximized="0" />
  <metadata
     id="metadata4307">
    <rdf:RDF>
      <cc:Work
         rdf:about="">
        <dc:format>image/svg+xml</dc:format>
        <dc:type
           rdf:resource="http://purl.org/dc/dcmitype/StillImage" />
        <dc:title></dc:title>
      </cc:Work>
    </rdf:RDF>
  </metadata>
  <g
     inkscape:label="Capa 1"
     inkscape:groupmode="layer"
     id="layer1"
     transform="translate(-240.1548,-470.88236)">
    <g
       id="g3790"
       style="color:#000000;fill:#ffffff;fill-opacity:1;fill-rule:nonzero;stroke:none;stroke-width:1.07376683;marker:none;visibility:visible;display:inline;overflow:visible;enable-background:accumulate"
       transform="translate(-181.37019,-215.75675)">
      <path
         style="color:#000000;fill:#ffffff;fill-opacity:1;marker:none;visibility:visible;display:inline;overflow:visible;enable-background:accumulate"
         d="m 550.71875,44.28125 c -15.02861,-0.0955 -31.39787,6.69102 -38.3125,20.75 -10.25483,-3.8131 -22.21989,-2.55923 -31.5,3.21875 -17.99381,-15.55655 -48.46466,-11.65717 -62.21875,7.6875 -14.3841,18.34534 -10.19559,47.64194 8.75,61.1875 15.74493,11.88798 39.60176,11.31907 54.5,-1.6875 2.01966,7.56366 4.28806,16.49146 11.875,21.46875 18.25259,14.75716 48.30737,13.79325 64.65625,-3.46875 5.85656,-3.87996 5.57321,-15.00191 9,-17.1875 19.28679,4.52001 41.72349,3.12679 57.59375,-9.78125 8.09151,-7.05442 5.12001,-19.67129 -3.84375,-24.40625 -10.03589,-7.19331 -22.76382,-8.94652 -34.8125,-9.21875 2.14869,-7.57583 7.8115,-15.25246 4.09375,-23.78125 -5.00343,-16.60414 -23.49602,-25.00335 -39.78125,-24.78125 z"
         transform="translate(11.428567,642.36215)"
         id="path3761"
         inkscape:connector-curvature="0" />
    </g>
  </g>
</svg>
