<?xml version="1.0" encoding="UTF-8" standalone="no"?>
<!-- Created with Inkscape (http://www.inkscape.org/) -->

<svg
   xmlns:dc="http://purl.org/dc/elements/1.1/"
   xmlns:cc="http://creativecommons.org/ns#"
   xmlns:rdf="http://www.w3.org/1999/02/22-rdf-syntax-ns#"
   xmlns:svg="http://www.w3.org/2000/svg"
   xmlns="http://www.w3.org/2000/svg"
   xmlns:xlink="http://www.w3.org/1999/xlink"
   xmlns:sodipodi="http://sodipodi.sourceforge.net/DTD/sodipodi-0.dtd"
   xmlns:inkscape="http://www.inkscape.org/namespaces/inkscape"
   width="41"
   height="71"
   id="svg4134"
   version="1.1"
   inkscape:version="0.48.5 r10040"
   sodipodi:docname="begin_down_right_02.svg">
  <defs
     id="defs4136">
    <linearGradient
       id="linearGradient3855">
      <stop
         style="stop-color:#d43e28;stop-opacity:1;"
         offset="0"
         id="stop3857" />
      <stop
         id="stop3863"
         offset="0.80000001"
         style="stop-color:#ffff00;stop-opacity:1;" />
      <stop
         style="stop-color:#ffff00;stop-opacity:0;"
         offset="1"
         id="stop3859" />
    </linearGradient>
    <linearGradient
       id="linearGradient3863">
      <stop
         style="stop-color:#3e3e3e;stop-opacity:1;"
         offset="0"
         id="stop3865" />
      <stop
         style="stop-color:#3e3e3e;stop-opacity:0;"
         offset="1"
         id="stop3867" />
    </linearGradient>
    <linearGradient
       id="linearGradient3851">
      <stop
         style="stop-color:#930000;stop-opacity:1;"
         offset="0"
         id="stop3853" />
      <stop
         style="stop-color:#80ff4e;stop-opacity:0;"
         offset="1"
         id="stop3855" />
    </linearGradient>
    <linearGradient
       id="linearGradient3843">
      <stop
         style="stop-color:#848484;stop-opacity:1;"
         offset="0"
         id="stop3845" />
      <stop
         style="stop-color:#fbb364;stop-opacity:0;"
         offset="1"
         id="stop3847" />
    </linearGradient>
    <linearGradient
       id="linearGradient3833">
      <stop
         style="stop-color:#4e4e4e;stop-opacity:1;"
         offset="0"
         id="stop3835" />
      <stop
         style="stop-color:#000000;stop-opacity:0;"
         offset="1"
         id="stop3837" />
    </linearGradient>
    <linearGradient
       inkscape:collect="always"
       xlink:href="#linearGradient4427"
       id="linearGradient4433"
       x1="354.4404"
       y1="262.36218"
       x2="390.5596"
       y2="262.36218"
       gradientUnits="userSpaceOnUse" />
    <linearGradient
       inkscape:collect="always"
       id="linearGradient4427">
      <stop
         style="stop-color:#f98940;stop-opacity:1;"
         offset="0"
         id="stop4429" />
      <stop
         style="stop-color:#f98940;stop-opacity:0;"
         offset="1"
         id="stop4431" />
    </linearGradient>
    <radialGradient
       inkscape:collect="always"
       xlink:href="#linearGradient3855"
       id="radialGradient4031"
       cx="30.420158"
       cy="57.1465"
       fx="30.420158"
       fy="57.1465"
       r="4.0441275"
       gradientTransform="matrix(1,0,0,0.95599973,0,2.5144615)"
       gradientUnits="userSpaceOnUse" />
  </defs>
  <sodipodi:namedview
     id="base"
     pagecolor="#ffffff"
     bordercolor="#666666"
     borderopacity="1.0"
     inkscape:pageopacity="0.0"
     inkscape:pageshadow="2"
     inkscape:zoom="5.6568542"
     inkscape:cx="-1.4938979"
     inkscape:cy="38.993373"
     inkscape:document-units="px"
     inkscape:current-layer="layer1"
     showgrid="false"
     fit-margin-top="0"
     fit-margin-left="0"
     fit-margin-right="0"
     fit-margin-bottom="0"
     inkscape:window-width="1366"
     inkscape:window-height="721"
     inkscape:window-x="0"
     inkscape:window-y="25"
     inkscape:window-maximized="1" />
  <metadata
     id="metadata4139">
    <rdf:RDF>
      <cc:Work
         rdf:about="">
        <dc:format>image/svg+xml</dc:format>
        <dc:type
           rdf:resource="http://purl.org/dc/dcmitype/StillImage" />
        <dc:title />
      </cc:Work>
    </rdf:RDF>
  </metadata>
  <g
     inkscape:label="Capa 1"
     inkscape:groupmode="layer"
     id="layer1"
     transform="translate(-328.91731,-497.69779)">
    <rect
       style="color:#000000;fill:#b3b3b3;fill-opacity:1;fill-rule:nonzero;stroke:none;stroke-width:2.16390872;marker:none;visibility:visible;display:inline;overflow:visible;enable-background:accumulate"
       id="rect4134"
       width="3.2142856"
       height="4.6428571"
       x="-339.48627"
       y="547.12439"
       transform="scale(-1,1)" />
    <g
       id="g3919"
       transform="matrix(-1,0,0,1.12,703.22502,-85.497791)">
      <rect
         y="547.30298"
         x="333.91489"
         height="8.5714293"
         width="2.5"
         id="rect3898"
         style="color:#000000;fill:#ff0000;fill-opacity:1;fill-rule:nonzero;stroke:none;stroke-width:1.87399995;marker:none;visibility:visible;display:inline;overflow:visible;enable-background:accumulate" />
      <rect
         y="549.80298"
         x="333.73627"
         height="6.4285712"
         width="3.2142859"
         id="rect3900"
         style="color:#000000;fill:#363636;fill-opacity:1;fill-rule:nonzero;stroke:none;stroke-width:1.60244286;marker:none;visibility:visible;display:inline;overflow:visible;enable-background:accumulate" />
    </g>
    <path
       sodipodi:type="arc"
       style="color:#000000;fill:#363636;fill-opacity:1;fill-rule:nonzero;stroke:none;stroke-width:1.87399995;marker:none;visibility:visible;display:inline;overflow:visible;enable-background:accumulate"
       id="path3859"
       sodipodi:cx="30.089285"
       sodipodi:cy="42.738739"
       sodipodi:rx="8.3035717"
       sodipodi:ry="11.428572"
       d="m 38.392857,42.738739 c 0,6.311826 -3.717636,11.428572 -8.303572,11.428572 -4.585936,0 -8.303572,-5.116746 -8.303572,-11.428572 0,-6.311826 3.717636,-11.428572 8.303572,-11.428572 4.42601,0 8.074071,4.778075 8.293373,10.862306"
       transform="matrix(-0.92473118,0,0,1,366.42038,494.38567)"
       sodipodi:start="0"
       sodipodi:end="6.2336167"
       sodipodi:open="true" />
    <rect
       y="523.34558"
       x="345.6998"
       height="6.7774453"
       width="4.6687212"
       id="rect3349"
       style="color:#000000;fill:#ffff00;fill-opacity:1;fill-rule:nonzero;stroke:none;stroke-width:0.83987445000000005;marker:none;visibility:visible;display:inline;overflow:visible;enable-background:accumulate"
       inkscape:transform-center-x="-2.6486114"
       inkscape:transform-center-y="-18.887557" />
    <path
       transform="matrix(0.13463993,0.01342957,-0.00989095,0.099163,307.8221,484.76993)"
       d="m 431.42857,262.36218 c 0,52.86154 -44.13193,95.71429 -98.57142,95.71429 -54.4395,0 -98.57143,-42.85275 -98.57143,-95.71429 0,-52.86154 44.13193,-95.71428 98.57143,-95.71428 54.43949,0 98.57142,42.85274 98.57142,95.71428 z"
       sodipodi:ry="95.714287"
       sodipodi:rx="98.571426"
       sodipodi:cy="262.36218"
       sodipodi:cx="332.85715"
       id="path3351"
       style="color:#000000;fill:#ffb380;fill-opacity:1;fill-rule:nonzero;stroke:none;stroke-width:0.83987445;marker:none;visibility:visible;display:inline;overflow:visible;enable-background:accumulate"
       sodipodi:type="arc"
       inkscape:transform-center-x="-1.2632025"
       inkscape:transform-center-y="-8.1151366" />
    <path
       sodipodi:nodetypes="ccccccc"
       inkscape:connector-curvature="0"
       id="path3357"
       d="m 343.88945,528.57275 10.01737,0.1671 -1.45304,11.5803 -0.46866,6.7433 -6.97023,-0.167 -0.2432,-6.2424 z"
       style="color:#000000;fill:#1a1a1a;fill-opacity:1;fill-rule:nonzero;stroke:none;stroke-width:0.83987445000000005;marker:none;visibility:visible;display:inline;overflow:visible;enable-background:accumulate"
       inkscape:transform-center-x="-1.7846629"
       inkscape:transform-center-y="-7.8037167" />
    <path
       sodipodi:type="arc"
       style="color:#000000;fill:#ffffff;fill-opacity:1;fill-rule:nonzero;stroke:none;stroke-width:1;marker:none;visibility:visible;display:inline;overflow:visible;enable-background:accumulate"
       id="path3392"
       sodipodi:cx="329"
       sodipodi:cy="230.86218"
       sodipodi:rx="15"
       sodipodi:ry="14.5"
       d="m 344,230.86218 c 0,8.00813 -6.71573,14.5 -15,14.5 -8.28427,0 -15,-6.49187 -15,-14.5 0,-8.00813 6.71573,-14.5 15,-14.5 8.28427,0 15,6.49187 15,14.5 z"
       transform="matrix(0.17360928,0.01731654,-0.01439701,0.14433915,306.32415,475.16207)"
       inkscape:transform-center-x="-11.338129"
       inkscape:transform-center-y="-9.1901528" />
    <path
       d="m 344,230.86218 c 0,8.00813 -6.71573,14.5 -15,14.5 -8.28427,0 -15,-6.49187 -15,-14.5 0,-8.00813 6.71573,-14.5 15,-14.5 8.28427,0 15,6.49187 15,14.5 z"
       sodipodi:ry="14.5"
       sodipodi:rx="15"
       sodipodi:cy="230.86218"
       sodipodi:cx="329"
       id="path3394"
       style="color:#000000;fill:#f98940;fill-opacity:1;fill-rule:nonzero;stroke:none;stroke-width:0.83987445;marker:none;visibility:visible;display:inline;overflow:visible;enable-background:accumulate"
       sodipodi:type="arc"
       transform="matrix(0.17360928,0.01731654,-0.0068496,0.0686716,304.69118,491.53365)"
       inkscape:transform-center-x="-11.44757"
       inkscape:transform-center-y="-10.287349" />
    <path
       sodipodi:type="arc"
       style="color:#000000;fill:#008000;fill-opacity:1;fill-rule:nonzero;stroke:none;stroke-width:0.83987445;marker:none;visibility:visible;display:inline;overflow:visible;enable-background:accumulate"
       id="path3396"
       sodipodi:cx="329.1582"
       sodipodi:cy="240.07327"
       sodipodi:rx="6.0104074"
       sodipodi:ry="5.126524"
       d="m 335.16861,240.07327 c 0,2.8313 -2.69095,5.12653 -6.01041,5.12653 -3.31945,0 -6.0104,-2.29523 -6.0104,-5.12653 0,-2.8313 2.69095,-5.12652 6.0104,-5.12652 3.31946,0 6.01041,2.29522 6.01041,5.12652 z"
       transform="matrix(0.17360928,0.01731654,-0.01439701,0.14433915,307.21026,474.73503)"
       inkscape:transform-center-x="-12.119092"
       inkscape:transform-center-y="-8.2849328" />
    <path
       transform="matrix(0.12275243,0.00538498,-0.00787681,0.10421566,315.02818,492.20999)"
       d="m 388,262.36218 c 0,5.24671 -6.93959,9.5 -15.5,9.5 -8.56041,0 -15.5,-4.25329 -15.5,-9.5 0,-5.2467 6.93959,-9.5 15.5,-9.5 8.56041,0 15.5,4.2533 15.5,9.5 z"
       sodipodi:ry="9.5"
       sodipodi:rx="15.5"
       sodipodi:cy="262.36218"
       sodipodi:cx="372.5"
       id="path3398"
       style="color:#000000;fill:#ffffff;fill-opacity:1;fill-rule:nonzero;stroke:url(#linearGradient4433);stroke-width:5.11922073;stroke-miterlimit:4;stroke-opacity:1;stroke-dasharray:none;marker:none;visibility:visible;display:inline;overflow:visible;enable-background:accumulate"
       sodipodi:type="arc"
       inkscape:transform-center-x="-9.9071339"
       inkscape:transform-center-y="-1.813673" />
    <path
       style="color:#000000;fill:#800000;fill-opacity:1;fill-rule:nonzero;stroke:none;stroke-width:5;marker:none;visibility:visible;display:inline;overflow:visible;enable-background:accumulate"
       d="m 363.85255,511.04041 -3.16249,-0.48935 -3.17481,-0.14275 c -0.14622,-0.007 -0.2728,0.0712 -0.28489,0.19244 l -0.0258,0.25852 c -0.0121,0.12115 0.0955,0.23038 0.24127,0.24492 l 3.20196,0.17031 3.13534,0.4618 c 0.1448,0.0215 0.27279,-0.0713 0.28487,-0.19244 l 0.0258,-0.25852 c 0.0121,-0.12115 -0.0955,-0.23039 -0.24125,-0.24493 z"
       id="path3402"
       inkscape:connector-curvature="0"
       sodipodi:nodetypes="scsssscssss"
       inkscape:transform-center-x="-11.869431"
       inkscape:transform-center-y="-12.298174" />
    <path
       sodipodi:nodetypes="ccccc"
       inkscape:connector-curvature="0"
       id="path3404"
       d="m 361.92973,517.08597 1.8762,0.18714 -0.47169,2.01514 -1.37847,-0.1375 z"
       style="color:#000000;fill:#f98940;fill-opacity:1;fill-rule:nonzero;stroke:none;stroke-width:0.42482722;marker:none;visibility:visible;display:inline;overflow:visible;enable-background:accumulate"
       inkscape:transform-center-x="-14.088081"
       inkscape:transform-center-y="-5.1847061" />
    <path
       d="m 344,230.86218 c 0,8.00813 -6.71573,14.5 -15,14.5 -8.28427,0 -15,-6.49187 -15,-14.5 0,-8.00813 6.71573,-14.5 15,-14.5 8.28427,0 15,6.49187 15,14.5 z"
       sodipodi:ry="14.5"
       sodipodi:rx="15"
       sodipodi:cy="230.86218"
       sodipodi:cx="329"
       id="path3406"
       style="color:#000000;fill:#ff9955;fill-opacity:1;fill-rule:nonzero;stroke:none;stroke-width:0.83987445;marker:none;visibility:visible;display:inline;overflow:visible;enable-background:accumulate"
       sodipodi:type="arc"
       transform="matrix(0.1235555,0.01232396,-0.0145087,0.14545896,311.59289,478.10162)"
       inkscape:transform-center-x="-0.11339012"
       inkscape:transform-center-y="-7.6346402" />
    <path
       style="fill:#800000;stroke:none"
       d="m 357.51285,499.24043 -8.81446,3.82896 1.17648,-4.13514 c 0,0 -4.68194,2.38588 -6.80216,3.51326 l -1.77285,4.44016 c -2.09294,0.46369 -4.25684,3.24368 -4.61153,6.79967 -0.40355,4.04582 1.9018,6.32267 3.85405,7.88696 1.64557,1.31834 5.21762,3.21111 6.06842,2.30639 0.85082,-0.90492 -1.482,-5.92917 -1.08053,-7.48902 l 2.32623,-3.74701 3.73347,0.58502 -0.64017,3.58106 2.78887,0.97682 1.93167,-8.58565 3.045,0.39487 0.71546,-0.0805 c 1.71495,0.81862 4.94369,0.0238 7.07634,-3.42517 l -2.9748,1.7384 3.20274,-4.87466 -4.03356,0.72155 1.81093,-3.40363 -8.84745,4.15977 z"
       id="path3410"
       inkscape:connector-curvature="0"
       sodipodi:nodetypes="cccccsssccccccccccccccc"
       inkscape:transform-center-x="-2.9087352"
       inkscape:transform-center-y="-11.846189" />
    <g
       id="g3416"
       transform="matrix(0.00152869,-0.08981658,0.03999167,4.0337884e-4,351.34464,540.67445)"
       inkscape:transform-center-x="-7.7386849"
       inkscape:transform-center-y="-0.55661161">
      <path
         sodipodi:nodetypes="ccccc"
         inkscape:connector-curvature="0"
         id="path3418"
         d="m 75.937335,343.49257 42.579695,0 6.64087,52.31602 -55.861436,0 z"
         style="color:#000000;fill:#ffb380;fill-opacity:1;fill-rule:nonzero;stroke:none;stroke-width:0.83987445;marker:none;visibility:visible;display:inline;overflow:visible;enable-background:accumulate" />
      <rect
         ry="4.5179267"
         y="389.39288"
         x="68.589363"
         height="35.641422"
         width="11.313708"
         id="rect3420"
         style="color:#000000;fill:#ffb380;fill-opacity:1;fill-rule:nonzero;stroke:none;stroke-width:0.83987445;marker:none;visibility:visible;display:inline;overflow:visible;enable-background:accumulate" />
      <rect
         ry="6.5541754"
         y="388.38889"
         x="80.610176"
         height="51.705162"
         width="14.142136"
         id="rect3422"
         style="color:#000000;fill:#ffb380;fill-opacity:1;fill-rule:nonzero;stroke:none;stroke-width:0.83987445;marker:none;visibility:visible;display:inline;overflow:visible;enable-background:accumulate" />
      <rect
         ry="8.3358927"
         y="388.38889"
         x="96.166527"
         height="65.760933"
         width="14.142136"
         id="rect3424"
         style="color:#000000;fill:#ffb380;fill-opacity:1;fill-rule:nonzero;stroke:none;stroke-width:0.83987445;marker:none;visibility:visible;display:inline;overflow:visible;enable-background:accumulate" />
      <rect
         ry="6.7450738"
         y="388.8909"
         x="111.72288"
         height="53.21114"
         width="14.142136"
         id="rect3426"
         style="color:#000000;fill:#ffb380;fill-opacity:1;fill-rule:nonzero;stroke:none;stroke-width:0.83987445;marker:none;visibility:visible;display:inline;overflow:visible;enable-background:accumulate" />
      <rect
         transform="matrix(0.81508153,-0.57934626,0.57415016,0.81875002,0,0)"
         ry="4.9051323"
         y="352.98563"
         x="-116.15137"
         height="38.696045"
         width="12.255621"
         id="rect3428"
         style="color:#000000;fill:#ffb380;fill-opacity:1;fill-rule:nonzero;stroke:none;stroke-width:0.83987445;marker:none;visibility:visible;display:inline;overflow:visible;enable-background:accumulate" />
    </g>
    <path
       sodipodi:nodetypes="ccccc"
       inkscape:transform-center-y="2.9746755"
       inkscape:transform-center-x="-1.1173208"
       style="color:#000000;fill:#ffff00;fill-opacity:1;fill-rule:nonzero;stroke:none;stroke-width:0.83987445000000005;marker:none;visibility:visible;display:inline;overflow:visible;enable-background:accumulate"
       d="m 346.10242,544.8328 5.3826,0.22501 1.99969,10.44888 -7.01669,0.42614 z"
       id="path3160"
       inkscape:connector-curvature="0" />
    <path
       inkscape:transform-center-x="0.95961118"
       style="color:#000000;fill:#ffff00;fill-opacity:1;fill-rule:nonzero;stroke:none;stroke-width:0.83987445000000005;marker:none;visibility:visible;display:inline;overflow:visible;enable-background:accumulate"
       d="m 346.43904,554.73016 6.91089,0.87365 -2.35273,10.36808 -4.9284,-0.62073 z"
       id="path3162"
       inkscape:connector-curvature="0"
       sodipodi:nodetypes="ccccc"
       inkscape:transform-center-y="5.6335056" />
    <path
       inkscape:transform-center-y="12.241246"
       inkscape:transform-center-x="1.1939063"
       style="color:#000000;fill:#1a1a1a;fill-opacity:1;fill-rule:nonzero;stroke:none;stroke-width:3.08750724999999981;marker:none;visibility:visible;display:inline;overflow:visible;enable-background:accumulate"
       d="m 346.0597,565.21974 5.20986,0.65682 2.25289,2.82123 -8.09476,-1.20155 z"
       id="path3164"
       inkscape:connector-curvature="0"
       sodipodi:nodetypes="ccccc" />
    <path
       sodipodi:type="arc"
       style="color:#000000;fill:#ffff00;fill-opacity:1;fill-rule:nonzero;stroke:none;stroke-width:1;marker:none;visibility:visible;display:inline;overflow:visible;enable-background:accumulate"
       id="path3166"
       sodipodi:cx="85.294754"
       sodipodi:cy="57.072777"
       sodipodi:rx="3.800699"
       sodipodi:ry="2.032932"
       d="m 89.095453,57.072777 c 0,1.122757 -1.701631,2.032932 -3.800699,2.032932 -2.099068,0 -3.800699,-0.910175 -3.800699,-2.032932 0,-1.122758 1.701631,-2.032932 3.800699,-2.032932 2.025867,0 3.695652,0.849931 3.796031,1.932203"
       transform="matrix(0.83098614,-0.29675928,0.33939994,0.94594346,260.12733,527.20371)"
       sodipodi:start="0"
       sodipodi:end="6.2336167"
       sodipodi:open="true"
       inkscape:transform-center-x="0.2923908"
       inkscape:transform-center-y="1.1618476" />
    <path
       sodipodi:type="arc"
       style="color:#000000;fill:#b3b3b3;fill-opacity:1;fill-rule:nonzero;stroke:none;stroke-width:1.87399995;marker:none;visibility:visible;display:inline;overflow:visible;enable-background:accumulate"
       id="path3886"
       sodipodi:cx="28.482143"
       sodipodi:cy="38.095882"
       sodipodi:rx="1.875"
       sodipodi:ry="8.0357141"
       d="m 30.357143,38.095882 c 0,4.438003 -0.839466,8.035715 -1.875,8.035715 -1.035534,0 -1.875,-3.597712 -1.875,-8.035715 0,-4.438002 0.839466,-8.035714 1.875,-8.035714 0.999422,0 1.823178,3.359584 1.872697,7.637558"
       transform="matrix(-1.3333333,0,0,1,373.71491,499.02852)"
       sodipodi:start="0"
       sodipodi:end="6.2336167"
       sodipodi:open="true" />
    <path
       sodipodi:type="arc"
       style="color:#000000;fill:#0000ff;fill-opacity:1;fill-rule:nonzero;stroke:none;stroke-width:1.87399995;marker:none;visibility:visible;display:inline;overflow:visible;enable-background:accumulate"
       id="path3890"
       sodipodi:cx="26.964285"
       sodipodi:cy="41.578026"
       sodipodi:rx="1.25"
       sodipodi:ry="1.6964285"
       d="m 28.214285,41.578026 c 0,0.936911 -0.559644,1.696428 -1.25,1.696428 -0.690356,0 -1.25,-0.759517 -1.25,-1.696428 0,-0.936912 0.559644,-1.696429 1.25,-1.696429 0.666281,0 1.215451,0.709246 1.248465,1.612374"
       transform="matrix(-1,0,0,2.5630782,362.34587,430.85145)"
       sodipodi:start="0"
       sodipodi:end="6.2336167"
       sodipodi:open="true" />
    <rect
       style="color:#000000;fill:#ffff00;fill-opacity:1;fill-rule:nonzero;stroke:none;stroke-width:0.94169312999999999;marker:none;visibility:visible;display:inline;overflow:visible;enable-background:accumulate"
       id="rect3927"
       width="3.8727372"
       height="18.924229"
       x="531.60077"
       y="352.86136"
       inkscape:transform-center-y="-0.016490257"
       transform="matrix(-0.01167311,0.99993187,0.99999689,-0.00249456,0,0)"
       inkscape:transform-center-x="-6.605583" />
    <rect
       style="color:#000000;fill:#363636;fill-opacity:1;fill-rule:nonzero;stroke:none;stroke-width:1.80209351;marker:none;visibility:visible;display:inline;overflow:visible;enable-background:accumulate"
       id="rect3946"
       width="23.928572"
       height="3.0357144"
       x="-366.81015"
       y="534.4458"
       transform="scale(-1,1)" />
    <path
       sodipodi:type="star"
       style="color:#000000;fill:url(#radialGradient4031);fill-opacity:1;fill-rule:nonzero;stroke:none;stroke-width:2.16390872;marker:none;visibility:visible;display:inline;overflow:visible;enable-background:accumulate"
       id="path3085"
       sodipodi:sides="3"
       sodipodi:cx="30"
       sodipodi:cy="57.950069"
       sodipodi:r1="4.744761"
       sodipodi:r2="3.0700665"
       sodipodi:arg1="0.34555558"
       sodipodi:arg2="1.3927531"
       inkscape:flatsided="false"
       inkscape:rounded="0"
       inkscape:randomized="0"
       d="m 34.464286,59.557212 -3.920565,1.414393 -4.167691,0.04108 0.735383,-4.102505 2.048271,-3.629865 3.185182,2.688112 z"
       transform="matrix(1.1689228,-0.31749411,-0.17923045,-2.0706644,313.05083,688.14599)" />
  </g>
</svg>
